<?xml version="1.0" standalone="no"?>
<!DOCTYPE svg PUBLIC "-//W3C//DTD SVG 20010904//EN"
 "http://www.w3.org/TR/2001/REC-SVG-20010904/DTD/svg10.dtd">
<svg version="1.0" xmlns="http://www.w3.org/2000/svg"
 width="500.000000pt" height="500.000000pt" viewBox="0 0 500.000000 500.000000"
 preserveAspectRatio="xMidYMid meet">
<metadata>
Created by potrace 1.11, written by Peter Selinger 2001-2013
</metadata>
<g transform="translate(0.000000,500.000000) scale(0.100000,-0.100000)"
fill="#000000" stroke="none">
<path d="M2458 4620 c-105 -31 -155 -147 -108 -246 37 -75 118 -113 204 -97
36 7 113 78 120 111 14 61 14 73 6 103 -30 103 -125 158 -222 129z"/>
<path d="M1915 4555 c-73 -17 -214 -71 -310 -119 -94 -47 -332 -183 -354 -202
-2 -2 1 -15 7 -29 13 -28 84 -66 156 -84 47 -12 199 -16 243 -7 26 5 110 18
120 18 5 0 18 4 30 9 13 5 25 4 28 -1 3 -5 -13 -14 -36 -20 -22 -6 -52 -16
-65 -22 l-24 -11 32 -29 c36 -31 97 -65 113 -63 6 1 37 5 70 9 100 14 105 15
105 6 0 -4 -20 -13 -45 -20 -25 -7 -45 -16 -45 -21 0 -4 19 -17 43 -27 23 -11
54 -30 70 -44 28 -25 42 -26 128 -14 32 4 38 3 23 -3 -30 -13 -39 -31 -17 -32
10 -1 82 -2 161 -3 110 -1 142 2 142 12 0 20 -51 116 -69 129 -9 6 -25 11 -36
9 -34 -5 -114 21 -151 49 -36 27 -69 83 -79 131 -3 16 -5 67 -4 114 2 153 0
171 -21 205 -28 45 -77 67 -148 64 -31 -1 -61 -3 -67 -4z"/>
<path d="M2945 4545 c-70 -33 -88 -68 -85 -165 8 -209 -3 -262 -67 -322 -36
-34 -85 -53 -155 -62 l-56 -7 -31 -63 c-17 -35 -31 -67 -31 -72 0 -8 201 -11
300 -5 l35 2 -35 19 -35 20 55 -6 c30 -4 62 -8 70 -9 8 -1 29 9 46 22 17 13
53 34 80 48 l48 24 -28 11 c-15 5 -31 10 -35 10 -4 0 -16 7 -27 15 -17 14 -15
14 26 10 25 -3 59 -8 75 -11 77 -14 85 -12 147 33 33 25 56 48 52 53 -5 4 -34
15 -64 25 -58 18 -90 38 -49 30 13 -3 51 -10 84 -15 33 -5 71 -12 85 -15 14
-3 66 -5 115 -5 155 0 295 55 295 116 0 23 -366 226 -510 282 -118 46 -252 63
-305 37z"/>
<path d="M2380 4270 c0 -25 35 -70 66 -85 63 -30 142 -8 180 50 24 36 6 45
-63 31 -34 -8 -64 -12 -65 -10 -2 1 -17 5 -33 8 -17 3 -42 8 -57 12 -18 3 -28
1 -28 -6z"/>
<path d="M1170 4198 c-68 -26 -288 -85 -480 -128 -103 -23 -110 -24 -285 -55
-137 -24 -221 -36 -292 -44 -24 -2 -13 -29 28 -66 79 -71 200 -104 374 -100
61 2 124 6 140 8 17 3 50 9 75 12 80 11 322 75 470 125 170 57 308 109 314
119 2 3 -12 7 -32 7 -157 5 -223 33 -277 117 -8 12 -16 13 -35 5z"/>
<path d="M3791 4170 c-37 -58 -131 -92 -258 -94 -36 0 -44 -10 -15 -19 9 -3
76 -26 147 -52 210 -75 414 -133 600 -171 11 -2 31 -6 45 -9 66 -13 102 -17
187 -20 150 -5 276 31 366 105 36 30 50 69 25 67 -12 -1 -166 15 -178 18 -3 1
-27 5 -55 9 -39 6 -265 51 -355 71 -164 36 -389 96 -461 124 -21 7 -27 4 -48
-29z"/>
<path d="M2455 4144 c-17 -17 -17 -21 -17 -82 1 -44 60 -169 73 -154 4 4 21
34 38 67 35 68 42 143 16 165 -23 19 -92 21 -110 4z"/>
<path d="M1505 4039 c-49 -23 -126 -54 -170 -70 -44 -16 -87 -32 -95 -36 -8
-3 -19 -7 -25 -9 -5 -2 -32 -10 -60 -18 -144 -43 -347 -97 -395 -106 -30 -6
-66 -12 -80 -15 -14 -3 -47 -8 -75 -11 -74 -10 -74 -10 -81 -16 -19 -20 127
-70 239 -83 96 -11 266 -6 354 10 128 24 249 67 408 145 185 90 290 160 243
160 -7 0 -30 16 -51 36 -33 31 -81 54 -112 54 -5 0 -50 -19 -100 -41z"/>
<path d="M3355 4071 c-11 -5 -31 -20 -45 -33 -14 -14 -38 -33 -53 -43 l-29
-18 69 -45 c185 -120 466 -226 678 -257 46 -7 204 -7 253 0 82 11 269 71 258
82 -3 3 -16 7 -28 9 -83 11 -109 15 -158 25 -79 15 -84 16 -210 49 -63 17
-123 32 -133 35 -70 16 -367 124 -443 160 -94 45 -121 51 -159 36z"/>
<path d="M1787 3929 c-132 -75 -366 -183 -474 -219 -121 -40 -132 -43 -216
-56 -26 -3 -50 -11 -53 -16 -8 -13 94 -56 161 -66 139 -22 279 -1 436 67 97
42 366 185 389 207 12 12 12 16 -5 29 -32 25 -107 62 -148 73 -33 9 -43 7 -90
-19z"/>
<path d="M3135 3950 c-44 -10 -97 -37 -135 -69 l-34 -28 70 -40 c109 -64 294
-159 354 -184 163 -65 348 -82 474 -45 98 29 138 66 72 66 -104 0 -506 154
-668 256 -62 39 -99 52 -133 44z"/>
<path d="M2020 3812 c-61 -39 -275 -149 -382 -196 -81 -36 -106 -55 -75 -57 6
0 21 -2 32 -4 11 -3 45 -7 77 -11 49 -5 57 -4 62 13 9 28 74 94 129 132 109
74 235 110 379 106 58 -2 88 1 91 9 3 7 -13 12 -47 13 -63 4 -151 12 -191 18
-22 4 -42 -3 -75 -23z"/>
<path d="M2909 3835 c-5 -4 -149 -18 -202 -18 -15 0 -26 -5 -24 -11 2 -7 44
-12 108 -12 143 -2 177 -9 287 -61 75 -35 153 -102 188 -162 18 -31 20 -32 74
-27 113 11 158 29 104 42 -35 8 -313 146 -422 209 -73 42 -102 52 -113 40z"/>
<path d="M2430 3820 c-39 -7 -80 -27 -80 -38 0 -4 14 -16 30 -25 17 -10 44
-31 62 -47 38 -35 45 -29 52 52 6 63 -1 69 -64 58z"/>
<path d="M2535 3821 c-15 -5 -20 -14 -19 -41 0 -44 13 -98 24 -105 4 -3 27 13
50 35 23 21 50 42 61 45 42 14 11 48 -58 63 -21 5 -47 6 -58 3z"/>
<path d="M2208 3775 c-1 -2 -30 -6 -62 -10 -146 -15 -273 -81 -347 -179 -82
-108 -98 -290 -37 -409 27 -54 99 -129 164 -172 49 -33 161 -82 209 -91 11 -2
43 -8 70 -13 47 -10 96 -13 325 -26 52 -3 106 -8 120 -10 14 -3 34 -7 46 -9
11 -2 38 -10 60 -16 l39 -12 -1 -161 c-2 -192 0 -177 -20 -177 -8 0 -25 -5
-37 -12 -21 -11 -20 -12 17 -23 29 -9 40 -17 41 -33 1 -12 1 -22 0 -22 0 0
-25 8 -54 19 -32 11 -63 30 -77 48 -12 16 -41 38 -63 48 l-40 18 37 27 c52 37
63 54 69 97 7 54 -18 108 -62 134 -19 12 -35 27 -35 34 0 11 -32 13 -167 9
-96 -3 -163 -1 -156 3 8 6 -13 14 -60 21 -39 7 -99 24 -132 37 -65 27 -67 26
-109 -37 -14 -21 -27 -28 -58 -30 -47 -3 -32 27 -134 -273 -30 -88 -57 -167
-60 -175 -3 -8 -40 89 -83 215 l-78 230 -109 0 -109 0 0 -320 0 -320 67 -3 66
-3 -1 262 c-1 145 0 254 2 243 6 -33 70 -222 163 -477 10 -27 13 -28 71 -25
l60 3 71 204 70 204 13 -39 c10 -27 14 -92 15 -206 l1 -168 56 0 57 0 -1 -97
c0 -110 9 -135 72 -198 75 -75 195 -112 374 -114 134 -2 193 -18 235 -64 40
-43 53 -75 49 -125 -5 -63 -57 -118 -140 -148 l-30 -11 54 -18 c29 -9 65 -23
79 -31 29 -15 32 -13 90 40 76 69 100 177 63 280 -48 138 -154 209 -326 221
-179 13 -206 16 -244 29 -91 33 -125 78 -112 151 16 84 17 85 146 85 l115 0 1
-77 c1 -43 2 -98 3 -123 l1 -45 50 0 50 0 2 80 c1 44 2 103 2 130 1 48 3 51
42 70 23 10 43 25 46 32 12 31 120 -23 160 -80 21 -30 27 -51 27 -92 1 -65
-24 -97 -96 -123 -26 -9 -48 -20 -48 -24 0 -5 3 -7 8 -6 4 2 41 -16 83 -40 42
-23 81 -42 85 -42 23 0 85 65 109 114 26 54 34 130 20 195 l-6 30 98 3 98 3 0
55 0 55 -123 3 -122 3 2 29 c1 18 9 32 19 35 9 3 26 13 37 23 11 9 31 26 44
37 14 12 38 20 60 20 20 1 40 4 45 8 11 12 10 107 -1 115 -17 11 -8 142 10
142 10 0 14 15 14 60 l0 60 -37 0 c-32 0 -41 6 -60 35 -13 19 -46 53 -75 75
-116 93 -243 132 -463 145 -232 14 -261 17 -360 46 -110 33 -194 90 -217 149
-13 32 -12 103 2 161 14 58 72 119 127 135 30 8 49 8 88 -4 74 -22 151 -19
213 8 94 41 89 78 -19 153 -42 29 -67 39 -106 42 -28 2 -53 2 -55 0z m72 -60
c0 -8 -7 -15 -15 -15 -8 0 -15 7 -15 15 0 8 7 15 15 15 8 0 15 -7 15 -15z
m-75 -1055 c0 -166 3 -161 -62 -117 -84 57 -83 161 3 237 58 50 59 47 59 -120z
m240 -15 l0 -70 -46 -3 -45 -3 -2 76 -2 76 47 -3 48 -3 0 -70z m-329 -306 c27
-11 59 -24 71 -29 14 -6 20 -15 17 -24 -5 -12 -12 -12 -48 4 -46 19 -53 18
-79 -20 -17 -24 -17 -24 -17 33 0 31 2 57 4 57 2 0 25 -9 52 -21z"/>
<path d="M2695 3756 c-67 -31 -125 -86 -125 -119 0 -21 10 -30 54 -52 68 -33
133 -38 221 -15 83 21 111 14 164 -39 63 -63 87 -205 45 -269 -40 -61 -146
-124 -230 -138 -20 -3 -46 -9 -58 -14 -21 -8 -21 -8 -1 -15 53 -18 195 -80
233 -102 l44 -25 52 35 c74 49 139 119 170 182 51 105 43 265 -18 370 -73 123
-229 202 -431 219 -60 5 -77 2 -120 -18z m75 -30 c0 -15 -14 -35 -21 -30 -15
9 -10 34 6 34 8 0 15 -2 15 -4z"/>
<path d="M2470 3593 c-22 -53 -32 -92 -32 -127 0 -28 1 -115 2 -193 l1 -143
65 0 c59 0 64 2 65 23 0 12 1 101 2 197 1 173 1 176 -28 247 -17 40 -33 73
-37 73 -3 0 -21 -35 -38 -77z"/>
<path d="M812 2803 c-11 -28 -77 -209 -171 -469 -28 -77 -51 -143 -51 -147 0
-4 35 -7 78 -7 l79 0 21 73 21 73 117 -1 116 0 22 -70 22 -70 81 -3 82 -3 -23
63 c-13 35 -65 181 -116 326 l-94 262 -87 0 c-85 0 -87 0 -97 -27z m156 -305
c13 -38 16 -58 8 -59 -16 -1 -119 -1 -133 0 -19 1 -16 18 22 135 19 59 35 115
36 124 0 9 11 -19 24 -63 13 -44 33 -106 43 -137z"/>
<path d="M3298 2818 c-2 -7 -4 -152 -4 -323 l1 -310 68 -3 67 -3 1 68 c1 37 1
140 1 227 -1 87 3 155 7 150 5 -5 72 -107 151 -226 l143 -218 73 0 74 0 0 325
0 325 -69 0 -69 0 1 -220 c2 -197 0 -218 -13 -200 -8 11 -73 110 -145 219
l-130 200 -76 0 c-53 1 -78 -3 -81 -11z"/>
<path d="M4028 2823 c-3 -5 -4 -150 -4 -323 l1 -315 195 0 195 0 0 58 1 57
-123 0 -123 0 1 74 1 75 104 -2 c62 -1 105 2 107 8 2 6 3 33 2 60 l0 50 -95 2
c-52 1 -100 2 -107 2 -8 1 -12 23 -12 71 l0 70 115 0 114 0 0 60 0 60 -184 0
c-102 0 -186 -3 -188 -7z"/>
<path d="M2163 1723 c-54 -111 -31 -238 59 -319 70 -63 156 -94 305 -108 109
-11 173 -74 158 -154 -9 -52 -28 -77 -81 -108 l-46 -27 43 -23 c38 -19 47 -20
69 -9 65 34 110 113 110 193 0 137 -73 209 -240 237 -146 24 -219 60 -259 127
-31 50 -9 144 44 188 13 11 4 16 -52 36 -38 13 -71 24 -75 24 -3 0 -19 -26
-35 -57z"/>
<path d="M2457 1754 c-1 -1 -1 -72 1 -156 l3 -154 39 0 c21 1 41 3 43 6 5 4
11 256 8 295 -1 8 -87 16 -94 9z"/>
<path d="M2268 1282 c-19 -30 -23 -51 -23 -113 0 -66 4 -82 28 -118 36 -55 95
-91 203 -125 137 -44 179 -109 150 -233 -8 -35 -57 -83 -84 -83 -15 0 -17 14
-12 140 l5 141 -30 -4 -30 -3 3 -118 c2 -65 5 -127 7 -137 5 -23 -13 -24 -43
-3 -72 50 -68 206 6 260 14 10 13 13 -6 23 -40 21 -59 13 -82 -35 -44 -91 -19
-221 52 -264 18 -11 41 -20 50 -20 25 0 27 -9 29 -96 2 -71 15 -144 19 -104 1
8 3 24 5 35 2 11 5 53 7 92 2 71 3 73 29 73 72 0 134 85 133 185 -1 116 -57
180 -204 230 -91 31 -143 86 -143 148 1 55 5 67 35 96 23 22 27 32 17 36 -8 2
-33 11 -56 19 l-42 15 -23 -37z"/>
<path d="M2473 1271 c-5 -3 -8 -19 -7 -36 1 -16 2 -72 3 -122 l1 -93 35 0 35
0 1 83 c0 45 2 101 3 125 1 23 0 42 -3 43 -28 5 -61 5 -68 0z"/>
</g>
</svg>
